HIERARCHY
ROOT root
{
	OFFSET 0.000000 0.000000 0.000000
	CHANNELS 6 Xposition Yposition Zposition Zrotation Yrotation Xrotation
	JOINT lhip
	{
		OFFSET 0.058581 -0.082280 -0.017664
		CHANNELS 3 Zrotation Yrotation Xrotation
		JOINT lknee
		{
			OFFSET 0.043451 -0.386469 0.008037
			CHANNELS 3 Zrotation Yrotation Xrotation
			JOINT lankle
			{
				OFFSET -0.014790 -0.426874 -0.037428
				CHANNELS 3 Zrotation Yrotation Xrotation
				JOINT ltoe
				{
					OFFSET 0.041054 -0.060286 0.122042
					CHANNELS 3 Zrotation Yrotation Xrotation
					End Site
					{
						OFFSET 0.000000 0.000000 0.000000
					}
				}
			}
		}
	}
	JOINT rhip
	{
		OFFSET -0.060310 -0.090513 -0.013543
		CHANNELS 3 Zrotation Yrotation Xrotation
		JOINT rknee
		{
			OFFSET -0.043257 -0.383688 -0.004843
			CHANNELS 3 Zrotation Yrotation Xrotation
			JOINT rankle
			{
				OFFSET 0.019056 -0.420046 -0.034562
				CHANNELS 3 Zrotation Yrotation Xrotation
				JOINT rtoe
				{
					OFFSET -0.034840 -0.062106 0.130323
					CHANNELS 3 Zrotation Yrotation Xrotation
					End Site
					{
						OFFSET 0.000000 0.000000 0.000000
					}
				}
			}
		}
	}
	JOINT lowerback
	{
		OFFSET 0.004439 0.124404 -0.038385
		CHANNELS 3 Zrotation Yrotation Xrotation
		JOINT upperback
		{
			OFFSET 0.004488 0.137956 0.026820
			CHANNELS 3 Zrotation Yrotation Xrotation
			JOINT chest
			{
				OFFSET -0.002265 0.056032 0.002855
				CHANNELS 3 Zrotation Yrotation Xrotation
				JOINT lowerneck
				{
					OFFSET -0.013390 0.211636 -0.033468
					CHANNELS 3 Zrotation Yrotation Xrotation
					JOINT upperneck
					{
						OFFSET 0.010113 0.088937 0.050410
						CHANNELS 3 Zrotation Yrotation Xrotation
						End Site
						{
							OFFSET 0.000000 0.000000 0.000000
						}
					}
				}
				JOINT lclavicle
				{
					OFFSET 0.071702 0.114000 -0.018898
					CHANNELS 3 Zrotation Yrotation Xrotation
					JOINT lshoulder
					{
						OFFSET 0.122921 0.045205 -0.019046
						CHANNELS 3 Zrotation Yrotation Xrotation
						JOINT lelbow
						{
							OFFSET 0.255332 -0.015649 -0.022946
							CHANNELS 3 Zrotation Yrotation Xrotation
							JOINT lwrist
							{
								OFFSET 0.265709 0.012698 -0.007375
								CHANNELS 3 Zrotation Yrotation Xrotation
								End Site
								{
									OFFSET 0.000000 0.000000 0.000000
								}
							}
						}
					}
				}
				JOINT rclavicle
				{
					OFFSET -0.082954 0.112472 -0.023707
					CHANNELS 3 Zrotation Yrotation Xrotation
					JOINT rshoulder
					{
						OFFSET -0.113228 0.046853 -0.008472
						CHANNELS 3 Zrotation Yrotation Xrotation
						JOINT relbow
						{
							OFFSET -0.260127 -0.014369 -0.031269
							CHANNELS 3 Zrotation Yrotation Xrotation
							JOINT rwrist
							{
								OFFSET -0.269108 0.006794 -0.006027
								CHANNELS 3 Zrotation Yrotation Xrotation
								End Site
								{
									OFFSET 0.000000 0.000000 0.000000
								}
							}
						}
					}
				}
			}
		}
	}
}
MOTION
Frames: 5
Frame Time: 0.033333
-0.310406 0.965141 0.990213 174.694254 1.541546 87.160958 5.525275 4.641310 9.026282 -1.380686 -3.551858 -4.823045 1.430406 8.813139 -7.291430 0.000000 -0.000000 0.000000 -2.157694 -5.686636 7.154259 0.405266 -4.324295 1.730427 1.393332 -7.107490 -13.622757 0.000000 -0.000000 0.000000 0.233285 2.071916 4.049423 2.470390 -3.752607 5.507296 2.137914 -0.565905 -7.281673 -1.889183 0.778165 1.111731 4.466518 -1.355727 -10.192091 -25.679232 -10.281263 -0.282885 -63.368527 -1.846883 13.314758 11.037950 -11.899232 -16.765594 -1.641203 -9.595158 -1.411734 23.823938 12.169096 4.163888 58.496975 -0.130748 10.144890 -12.682406 9.899410 -9.211055 11.197809 11.025690 1.527981 
-0.309546 0.962464 0.990854 174.385836 1.733297 87.258018 5.841693 4.663600 8.753393 -1.511884 -3.430899 -4.698393 1.288325 8.899977 -7.207528 0.000000 -0.000000 0.000000 -1.976947 -5.925173 6.816965 0.502951 -4.052117 1.893952 1.136643 -6.910640 -12.930830 0.000000 -0.000000 0.000000 0.426378 2.171566 4.141409 2.336559 -3.754600 5.339039 2.063061 -0.477876 -6.963230 -1.954240 0.026207 0.887786 4.501733 -2.249335 -10.445009 -25.515546 -10.477828 -0.234105 -63.601669 -2.064621 13.517538 11.325168 -12.928350 -16.350231 -1.300625 -9.577438 -1.734399 23.687446 12.411282 3.835518 58.627357 0.043894 10.307096 -12.547163 11.363103 -8.609640 10.911085 11.150915 1.280234 
-0.308759 0.960406 0.991571 174.176407 1.844136 87.252562 6.053297 4.623475 8.553472 -1.597586 -3.280827 -4.497083 1.364389 8.927318 -7.171305 0.000000 -0.000000 0.000000 -1.856652 -5.835783 7.057928 0.639986 -3.930031 1.320952 0.893334 -6.964871 -11.741863 0.000000 -0.000000 0.000000 0.497173 2.206915 4.276652 2.284391 -3.686885 5.306132 2.027772 -0.387981 -6.925841 -1.897431 -0.023068 0.405934 4.348311 -2.301163 -10.052875 -25.591941 -10.633694 -0.029227 -63.603068 -2.240952 13.531389 11.447683 -13.924536 -16.007576 -1.030867 -9.693603 -1.957237 23.591661 12.485417 3.890170 58.637270 0.356536 10.353243 -12.546485 13.006218 -8.313386 10.647654 11.403442 1.124351 
-0.307876 0.957497 0.991989 173.807652 1.842065 87.254309 6.131661 4.569548 8.148227 -1.705324 -2.933249 -4.038254 1.647579 8.948448 -7.260183 0.000000 -0.000000 0.000000 -1.884499 -5.737357 6.800408 0.767587 -3.997342 1.529605 0.730394 -6.791878 -10.815001 0.000000 -0.000000 0.000000 0.466153 2.324622 4.372348 2.217019 -3.586884 5.477866 1.932281 -0.353560 -6.819196 -1.630268 0.489358 -0.226903 4.159813 -1.865824 -9.897711 -25.645139 -10.697786 0.008088 -63.559135 -2.451430 13.332784 11.717867 -15.354610 -15.419496 -1.067739 -9.786697 -2.162531 23.736000 12.196083 4.028629 58.323790 1.299684 10.491150 -12.950949 15.771975 -7.740249 10.673249 11.641156 1.034687 
-0.307662 0.956691 0.992095 173.733770 1.854569 87.222233 6.151064 4.547505 8.035041 -1.699050 -2.874304 -3.855436 1.667087 8.952793 -7.295161 0.000000 -0.000000 0.000000 -1.838177 -5.626138 6.777989 0.773675 -3.964535 1.518411 0.738899 -6.887150 -10.741379 0.000000 -0.000000 0.000000 0.483582 2.320460 4.450199 2.198241 -3.579645 5.529126 1.886274 -0.320122 -6.793825 -1.610559 0.426102 -0.412412 4.133574 -1.999738 -9.937435 -25.653031 -10.726676 0.007215 -63.495978 -2.437561 13.349357 11.737007 -15.805564 -15.317489 -0.997338 -9.788979 -2.181713 23.728209 12.264384 3.958385 58.284805 1.453574 10.517723 -13.036752 16.591010 -7.726274 10.507151 11.741550 1.012909 
